<mxfile host="app.diagrams.net" modified="2024-05-22T04:35:16.415Z" agent="Mozilla/5.0 (Windows NT 10.0; Win64; x64) AppleWebKit/537.36 (KHTML, like Gecko) Chrome/124.0.0.0 Safari/537.36 Edg/124.0.0.0" etag="_87yezIOsCYxfXklOmMY" version="24.4.4" type="device">
  <diagram name="Page-1" id="b520641d-4fe3-3701-9064-5fc419738815">
    <mxGraphModel dx="1386" dy="1643" grid="1" gridSize="10" guides="1" tooltips="1" connect="1" arrows="1" fold="1" page="1" pageScale="1" pageWidth="1100" pageHeight="850" background="none" math="0" shadow="0">
      <root>
        <mxCell id="0" />
        <mxCell id="1" parent="0" />
        <mxCell id="gMKB-CB3w5Qyr5-P35p--82" style="edgeStyle=orthogonalEdgeStyle;rounded=0;orthogonalLoop=1;jettySize=auto;html=1;exitX=0.5;exitY=1;exitDx=0;exitDy=0;entryX=0.5;entryY=0;entryDx=0;entryDy=0;" parent="1" source="gMKB-CB3w5Qyr5-P35p--3" target="gMKB-CB3w5Qyr5-P35p--8" edge="1">
          <mxGeometry relative="1" as="geometry" />
        </mxCell>
        <mxCell id="gMKB-CB3w5Qyr5-P35p--3" value="&lt;b&gt;&lt;font style=&quot;font-size: 20px;&quot;&gt;START&lt;/font&gt;&lt;/b&gt;" style="text;html=1;align=center;verticalAlign=middle;whiteSpace=wrap;rounded=0;fontSize=15;" parent="1" vertex="1">
          <mxGeometry x="390" y="-80" width="60" height="30" as="geometry" />
        </mxCell>
        <mxCell id="gMKB-CB3w5Qyr5-P35p--83" style="edgeStyle=orthogonalEdgeStyle;rounded=0;orthogonalLoop=1;jettySize=auto;html=1;exitX=0.5;exitY=1;exitDx=0;exitDy=0;entryX=0.5;entryY=0;entryDx=0;entryDy=0;fontSize=17;" parent="1" source="gMKB-CB3w5Qyr5-P35p--8" target="gMKB-CB3w5Qyr5-P35p--9" edge="1">
          <mxGeometry relative="1" as="geometry" />
        </mxCell>
        <mxCell id="gMKB-CB3w5Qyr5-P35p--8" value="Import data from MATSim results and generate features" style="rounded=0;whiteSpace=wrap;html=1;fontSize=17;strokeWidth=3;" parent="1" vertex="1">
          <mxGeometry x="190" y="-10" width="460" height="60" as="geometry" />
        </mxCell>
        <mxCell id="gMKB-CB3w5Qyr5-P35p--84" style="edgeStyle=orthogonalEdgeStyle;rounded=0;orthogonalLoop=1;jettySize=auto;html=1;exitX=0.5;exitY=1;exitDx=0;exitDy=0;entryX=0.5;entryY=0;entryDx=0;entryDy=0;fontSize=17;" parent="1" source="gMKB-CB3w5Qyr5-P35p--9" target="gMKB-CB3w5Qyr5-P35p--10" edge="1">
          <mxGeometry relative="1" as="geometry" />
        </mxCell>
        <mxCell id="gMKB-CB3w5Qyr5-P35p--9" value="Numericalization" style="rounded=0;whiteSpace=wrap;html=1;fontSize=17;strokeWidth=3;" parent="1" vertex="1">
          <mxGeometry x="190" y="70" width="460" height="60" as="geometry" />
        </mxCell>
        <mxCell id="gMKB-CB3w5Qyr5-P35p--85" style="edgeStyle=orthogonalEdgeStyle;rounded=0;orthogonalLoop=1;jettySize=auto;html=1;exitX=0.5;exitY=1;exitDx=0;exitDy=0;entryX=0.5;entryY=0;entryDx=0;entryDy=0;fontSize=17;" parent="1" source="gMKB-CB3w5Qyr5-P35p--10" target="gMKB-CB3w5Qyr5-P35p--11" edge="1">
          <mxGeometry relative="1" as="geometry" />
        </mxCell>
        <mxCell id="gMKB-CB3w5Qyr5-P35p--10" value="Normalization" style="rounded=0;whiteSpace=wrap;html=1;fontSize=17;strokeWidth=3;" parent="1" vertex="1">
          <mxGeometry x="190" y="160" width="460" height="60" as="geometry" />
        </mxCell>
        <mxCell id="gMKB-CB3w5Qyr5-P35p--114" style="edgeStyle=orthogonalEdgeStyle;rounded=0;orthogonalLoop=1;jettySize=auto;html=1;exitX=0.5;exitY=1;exitDx=0;exitDy=0;fontSize=17;" parent="1" source="gMKB-CB3w5Qyr5-P35p--11" target="gMKB-CB3w5Qyr5-P35p--12" edge="1">
          <mxGeometry relative="1" as="geometry">
            <Array as="points">
              <mxPoint x="270" y="310" />
            </Array>
          </mxGeometry>
        </mxCell>
        <mxCell id="gMKB-CB3w5Qyr5-P35p--115" style="edgeStyle=orthogonalEdgeStyle;rounded=0;orthogonalLoop=1;jettySize=auto;html=1;exitX=0.5;exitY=1;exitDx=0;exitDy=0;entryX=0.5;entryY=0;entryDx=0;entryDy=0;fontSize=17;" parent="1" source="gMKB-CB3w5Qyr5-P35p--11" target="gMKB-CB3w5Qyr5-P35p--96" edge="1">
          <mxGeometry relative="1" as="geometry">
            <Array as="points">
              <mxPoint x="440" y="310" />
            </Array>
          </mxGeometry>
        </mxCell>
        <mxCell id="gMKB-CB3w5Qyr5-P35p--117" style="edgeStyle=orthogonalEdgeStyle;rounded=0;orthogonalLoop=1;jettySize=auto;html=1;exitX=0.75;exitY=1;exitDx=0;exitDy=0;" parent="1" source="gMKB-CB3w5Qyr5-P35p--11" edge="1">
          <mxGeometry relative="1" as="geometry">
            <mxPoint x="535.1111111111111" y="450" as="targetPoint" />
          </mxGeometry>
        </mxCell>
        <mxCell id="gMKB-CB3w5Qyr5-P35p--11" value="Split dataset to &quot;train&quot;, &quot;validate&quot; and &quot;test&quot;" style="rounded=0;whiteSpace=wrap;html=1;fontSize=17;strokeWidth=3;" parent="1" vertex="1">
          <mxGeometry x="190" y="250" width="460" height="60" as="geometry" />
        </mxCell>
        <mxCell id="gMKB-CB3w5Qyr5-P35p--103" style="edgeStyle=orthogonalEdgeStyle;rounded=0;orthogonalLoop=1;jettySize=auto;html=1;exitX=0.5;exitY=1;exitDx=0;exitDy=0;" parent="1" source="gMKB-CB3w5Qyr5-P35p--12" edge="1">
          <mxGeometry relative="1" as="geometry">
            <mxPoint x="270.20000000000005" y="450" as="targetPoint" />
          </mxGeometry>
        </mxCell>
        <mxCell id="gMKB-CB3w5Qyr5-P35p--12" value="Classification&lt;div&gt;with fine-tuning&lt;/div&gt;" style="rounded=0;whiteSpace=wrap;html=1;fontSize=17;strokeWidth=3;" parent="1" vertex="1">
          <mxGeometry x="190" y="340" width="160" height="60" as="geometry" />
        </mxCell>
        <mxCell id="gMKB-CB3w5Qyr5-P35p--91" style="edgeStyle=orthogonalEdgeStyle;rounded=0;orthogonalLoop=1;jettySize=auto;html=1;exitX=0.5;exitY=0;exitDx=0;exitDy=0;entryX=0.5;entryY=1;entryDx=0;entryDy=0;fontSize=17;" parent="1" source="gMKB-CB3w5Qyr5-P35p--18" target="gMKB-CB3w5Qyr5-P35p--20" edge="1">
          <mxGeometry relative="1" as="geometry" />
        </mxCell>
        <mxCell id="gMKB-CB3w5Qyr5-P35p--18" value="Pick the best model" style="rounded=0;whiteSpace=wrap;html=1;fontSize=17;strokeWidth=3;" parent="1" vertex="1">
          <mxGeometry x="690" y="250" width="460" height="60" as="geometry" />
        </mxCell>
        <mxCell id="gMKB-CB3w5Qyr5-P35p--90" style="edgeStyle=orthogonalEdgeStyle;rounded=0;orthogonalLoop=1;jettySize=auto;html=1;exitX=0.5;exitY=0;exitDx=0;exitDy=0;entryX=0.5;entryY=1;entryDx=0;entryDy=0;fontSize=17;" parent="1" source="gMKB-CB3w5Qyr5-P35p--19" target="gMKB-CB3w5Qyr5-P35p--18" edge="1">
          <mxGeometry relative="1" as="geometry" />
        </mxCell>
        <mxCell id="gMKB-CB3w5Qyr5-P35p--111" style="edgeStyle=orthogonalEdgeStyle;rounded=0;orthogonalLoop=1;jettySize=auto;html=1;exitX=0.5;exitY=1;exitDx=0;exitDy=0;entryX=0.5;entryY=1;entryDx=0;entryDy=0;" parent="1" target="gMKB-CB3w5Qyr5-P35p--19" edge="1">
          <mxGeometry relative="1" as="geometry">
            <mxPoint x="920" y="450" as="sourcePoint" />
          </mxGeometry>
        </mxCell>
        <mxCell id="gMKB-CB3w5Qyr5-P35p--19" value="Evaluate on &quot;validate&quot; dataset" style="rounded=0;whiteSpace=wrap;html=1;fontSize=17;strokeWidth=3;" parent="1" vertex="1">
          <mxGeometry x="690" y="340" width="460" height="60" as="geometry" />
        </mxCell>
        <mxCell id="gMKB-CB3w5Qyr5-P35p--92" style="edgeStyle=orthogonalEdgeStyle;rounded=0;orthogonalLoop=1;jettySize=auto;html=1;exitX=0.5;exitY=0;exitDx=0;exitDy=0;entryX=0.5;entryY=1;entryDx=0;entryDy=0;fontSize=17;" parent="1" source="gMKB-CB3w5Qyr5-P35p--20" target="gMKB-CB3w5Qyr5-P35p--81" edge="1">
          <mxGeometry relative="1" as="geometry" />
        </mxCell>
        <mxCell id="gMKB-CB3w5Qyr5-P35p--20" value="Predict the links count using &quot;test&quot; dataset" style="rounded=0;whiteSpace=wrap;html=1;fontSize=17;strokeWidth=3;" parent="1" vertex="1">
          <mxGeometry x="690" y="160" width="460" height="60" as="geometry" />
        </mxCell>
        <mxCell id="gMKB-CB3w5Qyr5-P35p--79" value="&lt;font style=&quot;font-size: 25px;&quot;&gt;Hyper-parameter Tuning&lt;/font&gt;" style="swimlane;horizontal=0;whiteSpace=wrap;html=1;startSize=60;direction=south;textDirection=vertical-lr;strokeWidth=3;" parent="1" vertex="1">
          <mxGeometry x="190" y="450" width="960" height="710" as="geometry" />
        </mxCell>
        <mxCell id="gMKB-CB3w5Qyr5-P35p--77" value="" style="group;strokeWidth=1;perimeterSpacing=1;" parent="gMKB-CB3w5Qyr5-P35p--79" vertex="1" connectable="0">
          <mxGeometry x="295" y="80" width="370" height="200" as="geometry" />
        </mxCell>
        <mxCell id="gMKB-CB3w5Qyr5-P35p--21" value="&lt;font style=&quot;font-size: 25px;&quot;&gt;Feature Selection&lt;/font&gt;" style="swimlane;whiteSpace=wrap;html=1;fontSize=15;container=0;startSize=30;" parent="gMKB-CB3w5Qyr5-P35p--77" vertex="1">
          <mxGeometry width="370" height="200" as="geometry" />
        </mxCell>
        <mxCell id="gMKB-CB3w5Qyr5-P35p--13" value="SelectKBest&lt;br style=&quot;font-size: 15px;&quot;&gt;(f_regression)" style="rounded=0;whiteSpace=wrap;html=1;fontSize=15;container=0;strokeWidth=1;" parent="gMKB-CB3w5Qyr5-P35p--77" vertex="1">
          <mxGeometry x="74" y="33.33333333333337" width="222" height="46.66666666666667" as="geometry" />
        </mxCell>
        <mxCell id="gMKB-CB3w5Qyr5-P35p--24" value="Optimize K: Number of selected feature" style="rounded=0;whiteSpace=wrap;html=1;fontSize=15;container=0;strokeWidth=1;" parent="gMKB-CB3w5Qyr5-P35p--77" vertex="1">
          <mxGeometry x="74" y="106.66666666666674" width="222" height="80" as="geometry" />
        </mxCell>
        <mxCell id="gMKB-CB3w5Qyr5-P35p--27" value="" style="edgeStyle=orthogonalEdgeStyle;rounded=0;orthogonalLoop=1;jettySize=auto;html=1;fontSize=15;" parent="gMKB-CB3w5Qyr5-P35p--77" source="gMKB-CB3w5Qyr5-P35p--13" target="gMKB-CB3w5Qyr5-P35p--24" edge="1">
          <mxGeometry relative="1" as="geometry" />
        </mxCell>
        <mxCell id="gMKB-CB3w5Qyr5-P35p--67" value="" style="group;fontSize=15;strokeWidth=3;strokeColor=none;" parent="gMKB-CB3w5Qyr5-P35p--79" vertex="1" connectable="0">
          <mxGeometry x="90" y="300" width="830" height="400" as="geometry" />
        </mxCell>
        <mxCell id="FQRCVSw-DP6-Q9o8BPlu-36" value="" style="group" parent="gMKB-CB3w5Qyr5-P35p--67" vertex="1" connectable="0">
          <mxGeometry x="-50" width="880" height="370" as="geometry" />
        </mxCell>
        <mxCell id="gMKB-CB3w5Qyr5-P35p--29" value="&lt;font style=&quot;font-size: 15px;&quot;&gt;Modeling&lt;/font&gt;" style="swimlane;whiteSpace=wrap;html=1;fontSize=15;startSize=40;direction=east;container=0;" parent="FQRCVSw-DP6-Q9o8BPlu-36" vertex="1">
          <mxGeometry width="880" height="370" as="geometry" />
        </mxCell>
        <mxCell id="FQRCVSw-DP6-Q9o8BPlu-30" value="KNN" style="rounded=0;whiteSpace=wrap;html=1;fontSize=15;container=0;" parent="gMKB-CB3w5Qyr5-P35p--29" vertex="1">
          <mxGeometry x="680.0911320754717" y="176.7441860465117" width="84.90566037735849" height="55.81395348837209" as="geometry" />
        </mxCell>
        <mxCell id="FQRCVSw-DP6-Q9o8BPlu-31" value="Gaussian Process" style="rounded=0;whiteSpace=wrap;html=1;fontSize=15;container=0;" parent="gMKB-CB3w5Qyr5-P35p--29" vertex="1">
          <mxGeometry x="780.0011320754717" y="176.7441860465117" width="84.90566037735849" height="55.81395348837209" as="geometry" />
        </mxCell>
        <mxCell id="gMKB-CB3w5Qyr5-P35p--30" value="Linear models" style="rounded=0;whiteSpace=wrap;html=1;fontSize=15;container=0;" parent="FQRCVSw-DP6-Q9o8BPlu-36" vertex="1">
          <mxGeometry x="106.98433962264151" y="55.81395348837209" width="84.90566037735849" height="55.81395348837209" as="geometry" />
        </mxCell>
        <mxCell id="gMKB-CB3w5Qyr5-P35p--34" value="Linear Regression" style="rounded=0;whiteSpace=wrap;html=1;fontSize=15;container=0;" parent="FQRCVSw-DP6-Q9o8BPlu-36" vertex="1">
          <mxGeometry x="15.003207547169808" y="176.74418604651163" width="84.90566037735849" height="55.81395348837209" as="geometry" />
        </mxCell>
        <mxCell id="gMKB-CB3w5Qyr5-P35p--42" style="edgeStyle=orthogonalEdgeStyle;rounded=0;orthogonalLoop=1;jettySize=auto;html=1;exitX=0.5;exitY=1;exitDx=0;exitDy=0;entryX=0.25;entryY=0;entryDx=0;entryDy=0;fontSize=15;" parent="FQRCVSw-DP6-Q9o8BPlu-36" source="gMKB-CB3w5Qyr5-P35p--30" target="gMKB-CB3w5Qyr5-P35p--34" edge="1">
          <mxGeometry relative="1" as="geometry" />
        </mxCell>
        <mxCell id="gMKB-CB3w5Qyr5-P35p--35" value="Lasso Regression" style="rounded=0;whiteSpace=wrap;html=1;fontSize=15;container=0;" parent="FQRCVSw-DP6-Q9o8BPlu-36" vertex="1">
          <mxGeometry x="106.98433962264151" y="176.74418604651163" width="84.90566037735849" height="55.81395348837209" as="geometry" />
        </mxCell>
        <mxCell id="gMKB-CB3w5Qyr5-P35p--43" style="edgeStyle=orthogonalEdgeStyle;rounded=0;orthogonalLoop=1;jettySize=auto;html=1;exitX=0.5;exitY=1;exitDx=0;exitDy=0;entryX=0.5;entryY=0;entryDx=0;entryDy=0;fontSize=15;" parent="FQRCVSw-DP6-Q9o8BPlu-36" source="gMKB-CB3w5Qyr5-P35p--30" target="gMKB-CB3w5Qyr5-P35p--35" edge="1">
          <mxGeometry relative="1" as="geometry" />
        </mxCell>
        <mxCell id="gMKB-CB3w5Qyr5-P35p--36" value="Ridge Regression" style="rounded=0;whiteSpace=wrap;html=1;fontSize=15;container=0;" parent="FQRCVSw-DP6-Q9o8BPlu-36" vertex="1">
          <mxGeometry x="198.96547169811322" y="176.74418604651163" width="84.90566037735849" height="55.81395348837209" as="geometry" />
        </mxCell>
        <mxCell id="gMKB-CB3w5Qyr5-P35p--44" style="edgeStyle=orthogonalEdgeStyle;rounded=0;orthogonalLoop=1;jettySize=auto;html=1;exitX=0.5;exitY=1;exitDx=0;exitDy=0;entryX=0.5;entryY=0;entryDx=0;entryDy=0;fontSize=15;" parent="FQRCVSw-DP6-Q9o8BPlu-36" source="gMKB-CB3w5Qyr5-P35p--30" target="gMKB-CB3w5Qyr5-P35p--36" edge="1">
          <mxGeometry relative="1" as="geometry" />
        </mxCell>
        <mxCell id="gMKB-CB3w5Qyr5-P35p--52" value="Optimize model parameters" style="rounded=0;whiteSpace=wrap;html=1;fontSize=15;container=0;" parent="FQRCVSw-DP6-Q9o8BPlu-36" vertex="1">
          <mxGeometry x="460.6552830188679" y="288.3720930232558" width="141.50943396226415" height="55.81395348837209" as="geometry" />
        </mxCell>
        <mxCell id="gMKB-CB3w5Qyr5-P35p--31" value="Tree-Based models" style="rounded=0;whiteSpace=wrap;html=1;fontSize=15;container=0;" parent="FQRCVSw-DP6-Q9o8BPlu-36" vertex="1">
          <mxGeometry x="347.44943396226415" y="55.81395348837209" width="84.90566037735849" height="55.81395348837209" as="geometry" />
        </mxCell>
        <mxCell id="FQRCVSw-DP6-Q9o8BPlu-34" style="edgeStyle=orthogonalEdgeStyle;rounded=0;orthogonalLoop=1;jettySize=auto;html=1;exitX=0.5;exitY=1;exitDx=0;exitDy=0;entryX=0.5;entryY=0;entryDx=0;entryDy=0;" parent="FQRCVSw-DP6-Q9o8BPlu-36" source="gMKB-CB3w5Qyr5-P35p--33" target="FQRCVSw-DP6-Q9o8BPlu-31" edge="1">
          <mxGeometry relative="1" as="geometry" />
        </mxCell>
        <mxCell id="FQRCVSw-DP6-Q9o8BPlu-37" style="edgeStyle=orthogonalEdgeStyle;rounded=0;orthogonalLoop=1;jettySize=auto;html=1;exitX=0.5;exitY=1;exitDx=0;exitDy=0;entryX=0.5;entryY=0;entryDx=0;entryDy=0;" parent="FQRCVSw-DP6-Q9o8BPlu-36" source="gMKB-CB3w5Qyr5-P35p--33" target="FQRCVSw-DP6-Q9o8BPlu-30" edge="1">
          <mxGeometry relative="1" as="geometry" />
        </mxCell>
        <mxCell id="gMKB-CB3w5Qyr5-P35p--33" value="Others" style="rounded=0;whiteSpace=wrap;html=1;fontSize=15;container=0;" parent="FQRCVSw-DP6-Q9o8BPlu-36" vertex="1">
          <mxGeometry x="715.0011320754717" y="55.81395348837209" width="84.90566037735849" height="55.81395348837209" as="geometry" />
        </mxCell>
        <mxCell id="gMKB-CB3w5Qyr5-P35p--37" value="Random Forest" style="rounded=0;whiteSpace=wrap;html=1;fontSize=15;container=0;" parent="FQRCVSw-DP6-Q9o8BPlu-36" vertex="1">
          <mxGeometry x="304.99660377358487" y="176.74418604651163" width="84.90566037735849" height="55.81395348837209" as="geometry" />
        </mxCell>
        <mxCell id="gMKB-CB3w5Qyr5-P35p--45" style="edgeStyle=orthogonalEdgeStyle;rounded=0;orthogonalLoop=1;jettySize=auto;html=1;exitX=0.5;exitY=1;exitDx=0;exitDy=0;entryX=0.5;entryY=0;entryDx=0;entryDy=0;fontSize=15;" parent="FQRCVSw-DP6-Q9o8BPlu-36" source="gMKB-CB3w5Qyr5-P35p--31" target="gMKB-CB3w5Qyr5-P35p--37" edge="1">
          <mxGeometry relative="1" as="geometry" />
        </mxCell>
        <mxCell id="gMKB-CB3w5Qyr5-P35p--38" value="Gradient Boosting" style="rounded=0;whiteSpace=wrap;html=1;fontSize=15;container=0;" parent="FQRCVSw-DP6-Q9o8BPlu-36" vertex="1">
          <mxGeometry x="396.97773584905656" y="176.74418604651163" width="84.90566037735849" height="55.81395348837209" as="geometry" />
        </mxCell>
        <mxCell id="gMKB-CB3w5Qyr5-P35p--46" style="edgeStyle=orthogonalEdgeStyle;rounded=0;orthogonalLoop=1;jettySize=auto;html=1;exitX=0.5;exitY=1;exitDx=0;exitDy=0;entryX=0.5;entryY=0;entryDx=0;entryDy=0;fontSize=15;" parent="FQRCVSw-DP6-Q9o8BPlu-36" source="gMKB-CB3w5Qyr5-P35p--31" target="gMKB-CB3w5Qyr5-P35p--38" edge="1">
          <mxGeometry relative="1" as="geometry" />
        </mxCell>
        <mxCell id="gMKB-CB3w5Qyr5-P35p--39" value="Neural Network models" style="rounded=0;whiteSpace=wrap;html=1;fontSize=15;container=0;" parent="FQRCVSw-DP6-Q9o8BPlu-36" vertex="1">
          <mxGeometry x="531.4116981132074" y="55.81395348837209" width="84.90566037735849" height="55.81395348837209" as="geometry" />
        </mxCell>
        <mxCell id="gMKB-CB3w5Qyr5-P35p--40" value="ANN" style="rounded=0;whiteSpace=wrap;html=1;fontSize=15;container=0;" parent="FQRCVSw-DP6-Q9o8BPlu-36" vertex="1">
          <mxGeometry x="488.9588679245283" y="176.74418604651163" width="84.90566037735849" height="55.81395348837209" as="geometry" />
        </mxCell>
        <mxCell id="gMKB-CB3w5Qyr5-P35p--47" style="edgeStyle=orthogonalEdgeStyle;rounded=0;orthogonalLoop=1;jettySize=auto;html=1;exitX=0.5;exitY=1;exitDx=0;exitDy=0;entryX=0.5;entryY=0;entryDx=0;entryDy=0;fontSize=15;" parent="FQRCVSw-DP6-Q9o8BPlu-36" source="gMKB-CB3w5Qyr5-P35p--39" target="gMKB-CB3w5Qyr5-P35p--40" edge="1">
          <mxGeometry relative="1" as="geometry" />
        </mxCell>
        <mxCell id="gMKB-CB3w5Qyr5-P35p--41" value="GNN" style="rounded=0;whiteSpace=wrap;html=1;fontSize=15;container=0;" parent="FQRCVSw-DP6-Q9o8BPlu-36" vertex="1">
          <mxGeometry x="580.94" y="176.74418604651163" width="84.90566037735849" height="55.81395348837209" as="geometry" />
        </mxCell>
        <mxCell id="gMKB-CB3w5Qyr5-P35p--48" style="edgeStyle=orthogonalEdgeStyle;rounded=0;orthogonalLoop=1;jettySize=auto;html=1;exitX=0.5;exitY=1;exitDx=0;exitDy=0;entryX=0.5;entryY=0;entryDx=0;entryDy=0;fontSize=15;" parent="FQRCVSw-DP6-Q9o8BPlu-36" source="gMKB-CB3w5Qyr5-P35p--39" target="gMKB-CB3w5Qyr5-P35p--41" edge="1">
          <mxGeometry relative="1" as="geometry" />
        </mxCell>
        <mxCell id="gMKB-CB3w5Qyr5-P35p--56" style="edgeStyle=orthogonalEdgeStyle;rounded=0;orthogonalLoop=1;jettySize=auto;html=1;exitX=0.5;exitY=1;exitDx=0;exitDy=0;entryX=0.5;entryY=0;entryDx=0;entryDy=0;fontSize=15;" parent="FQRCVSw-DP6-Q9o8BPlu-36" source="gMKB-CB3w5Qyr5-P35p--37" target="gMKB-CB3w5Qyr5-P35p--52" edge="1">
          <mxGeometry relative="1" as="geometry" />
        </mxCell>
        <mxCell id="gMKB-CB3w5Qyr5-P35p--57" style="edgeStyle=orthogonalEdgeStyle;rounded=0;orthogonalLoop=1;jettySize=auto;html=1;exitX=0.5;exitY=1;exitDx=0;exitDy=0;entryX=0.5;entryY=0;entryDx=0;entryDy=0;fontSize=15;" parent="FQRCVSw-DP6-Q9o8BPlu-36" source="gMKB-CB3w5Qyr5-P35p--38" target="gMKB-CB3w5Qyr5-P35p--52" edge="1">
          <mxGeometry relative="1" as="geometry" />
        </mxCell>
        <mxCell id="gMKB-CB3w5Qyr5-P35p--58" style="edgeStyle=orthogonalEdgeStyle;rounded=0;orthogonalLoop=1;jettySize=auto;html=1;exitX=0.5;exitY=1;exitDx=0;exitDy=0;entryX=0.5;entryY=0;entryDx=0;entryDy=0;fontSize=15;" parent="FQRCVSw-DP6-Q9o8BPlu-36" source="gMKB-CB3w5Qyr5-P35p--40" target="gMKB-CB3w5Qyr5-P35p--52" edge="1">
          <mxGeometry relative="1" as="geometry" />
        </mxCell>
        <mxCell id="gMKB-CB3w5Qyr5-P35p--59" style="edgeStyle=orthogonalEdgeStyle;rounded=0;orthogonalLoop=1;jettySize=auto;html=1;exitX=0.5;exitY=1;exitDx=0;exitDy=0;entryX=0.5;entryY=0;entryDx=0;entryDy=0;fontSize=15;" parent="FQRCVSw-DP6-Q9o8BPlu-36" source="gMKB-CB3w5Qyr5-P35p--41" target="gMKB-CB3w5Qyr5-P35p--52" edge="1">
          <mxGeometry relative="1" as="geometry" />
        </mxCell>
        <mxCell id="FQRCVSw-DP6-Q9o8BPlu-33" style="edgeStyle=orthogonalEdgeStyle;rounded=0;orthogonalLoop=1;jettySize=auto;html=1;exitX=0.5;exitY=1;exitDx=0;exitDy=0;entryX=0.5;entryY=0;entryDx=0;entryDy=0;" parent="FQRCVSw-DP6-Q9o8BPlu-36" source="FQRCVSw-DP6-Q9o8BPlu-31" target="gMKB-CB3w5Qyr5-P35p--52" edge="1">
          <mxGeometry relative="1" as="geometry" />
        </mxCell>
        <mxCell id="FQRCVSw-DP6-Q9o8BPlu-32" style="edgeStyle=orthogonalEdgeStyle;rounded=0;orthogonalLoop=1;jettySize=auto;html=1;exitX=0.5;exitY=1;exitDx=0;exitDy=0;entryX=0.5;entryY=0;entryDx=0;entryDy=0;" parent="FQRCVSw-DP6-Q9o8BPlu-36" source="FQRCVSw-DP6-Q9o8BPlu-30" target="gMKB-CB3w5Qyr5-P35p--52" edge="1">
          <mxGeometry relative="1" as="geometry" />
        </mxCell>
        <mxCell id="gMKB-CB3w5Qyr5-P35p--80" value="&lt;b&gt;&lt;font style=&quot;font-size: 20px;&quot;&gt;END&lt;/font&gt;&lt;/b&gt;" style="text;html=1;align=center;verticalAlign=middle;whiteSpace=wrap;rounded=0;fontSize=15;" parent="1" vertex="1">
          <mxGeometry x="890" y="-80" width="60" height="30" as="geometry" />
        </mxCell>
        <mxCell id="b7hs0lXv0ss-k1yak4oa-4" style="edgeStyle=orthogonalEdgeStyle;rounded=0;orthogonalLoop=1;jettySize=auto;html=1;exitX=0.5;exitY=0;exitDx=0;exitDy=0;entryX=0.5;entryY=1;entryDx=0;entryDy=0;" parent="1" source="gMKB-CB3w5Qyr5-P35p--81" target="b7hs0lXv0ss-k1yak4oa-1" edge="1">
          <mxGeometry relative="1" as="geometry" />
        </mxCell>
        <mxCell id="gMKB-CB3w5Qyr5-P35p--81" value="Calculate the error metrics" style="rounded=0;whiteSpace=wrap;html=1;fontSize=17;strokeWidth=3;" parent="1" vertex="1">
          <mxGeometry x="690" y="70" width="460" height="60" as="geometry" />
        </mxCell>
        <mxCell id="gMKB-CB3w5Qyr5-P35p--104" style="edgeStyle=orthogonalEdgeStyle;rounded=0;orthogonalLoop=1;jettySize=auto;html=1;exitX=0.5;exitY=1;exitDx=0;exitDy=0;" parent="1" source="gMKB-CB3w5Qyr5-P35p--96" edge="1">
          <mxGeometry relative="1" as="geometry">
            <mxPoint x="439.79999999999995" y="450" as="targetPoint" />
          </mxGeometry>
        </mxCell>
        <mxCell id="gMKB-CB3w5Qyr5-P35p--96" value="Sampling" style="rounded=0;whiteSpace=wrap;html=1;fontSize=17;strokeWidth=3;" parent="1" vertex="1">
          <mxGeometry x="360" y="340" width="160" height="60" as="geometry" />
        </mxCell>
        <mxCell id="b7hs0lXv0ss-k1yak4oa-3" style="edgeStyle=orthogonalEdgeStyle;rounded=0;orthogonalLoop=1;jettySize=auto;html=1;exitX=0.5;exitY=0;exitDx=0;exitDy=0;entryX=0.5;entryY=1;entryDx=0;entryDy=0;" parent="1" source="b7hs0lXv0ss-k1yak4oa-1" target="gMKB-CB3w5Qyr5-P35p--80" edge="1">
          <mxGeometry relative="1" as="geometry" />
        </mxCell>
        <mxCell id="b7hs0lXv0ss-k1yak4oa-1" value="Compare the performance" style="rounded=0;whiteSpace=wrap;html=1;fontSize=17;strokeWidth=3;" parent="1" vertex="1">
          <mxGeometry x="690" y="-10" width="460" height="60" as="geometry" />
        </mxCell>
      </root>
    </mxGraphModel>
  </diagram>
</mxfile>
